<?xml version="1.0" encoding="utf-8"?>
<!-- Generator: Adobe Illustrator 19.0.0, SVG Export Plug-In . SVG Version: 6.00 Build 0)  -->
<svg version="1.1" id="Capa_1" xmlns="http://www.w3.org/2000/svg" xmlns:xlink="http://www.w3.org/1999/xlink" x="0px" y="0px"
	 viewBox="-237 239 24 24" style="enable-background:new -237 239 24 24;" xml:space="preserve">
<style type="text/css">
	.st0{fill:none;}
	.st1{fill:#FFC107;}
</style>
<path class="st0" d="M-237,239h24v24h-24V239z"/>
<path class="st1" d="M-215,258h-6v-4h-2.7c-1.1,2.4-3.6,4-6.3,4c-3.9,0-7-3.1-7-7s3.1-7,7-7c2.7,0,5.2,1.6,6.3,4h10.7v6h-2V258z
	 M-219,256h2v-4h2v-2h-10.1l-0.2-0.7c-0.7-2-2.6-3.3-4.7-3.3c-2.8,0-5,2.2-5,5s2.2,5,5,5c2.1,0,4-1.3,4.7-3.3l0.2-0.7h6.1V256z
	 M-230,254c-1.6,0-3-1.4-3-3s1.4-3,3-3s3,1.4,3,3S-228.4,254-230,254z M-230,250c-0.6,0-1,0.4-1,1s0.4,1,1,1s1-0.4,1-1
	S-229.4,250-230,250z"/>
</svg>
