<?xml version="1.0" encoding="utf-8"?>
<!-- Generator: Adobe Illustrator 19.0.0, SVG Export Plug-In . SVG Version: 6.00 Build 0)  -->
<svg version="1.1" id="Capa_1" xmlns="http://www.w3.org/2000/svg" xmlns:xlink="http://www.w3.org/1999/xlink" x="0px" y="0px"
	 viewBox="-237 239 24 24" style="enable-background:new -237 239 24 24;" xml:space="preserve">
<style type="text/css">
	.st0{fill:none;}
	.st1{fill:#66E0FF;}
</style>
<g>
	<rect x="-237" y="239" class="st0" width="24" height="24"/>
</g>
<g>
	<g>
		<path class="st1" d="M-225,242c-0.5,0-0.9,0-1.4,0.1c-2.8,0.5-5,2.8-5.5,5.5c-0.5,2.6,0.5,5,2.2,6.6c0.4,0.4,0.7,0.9,0.7,1.5v2.3
			c0,1.1,0.9,2,2,2h0.3c0.4,0.6,1,1,1.7,1s1.4-0.4,1.7-1h0.3c1.1,0,2-0.9,2-2v-2.3c0-0.6,0.2-1.1,0.6-1.5c1.4-1.3,2.4-3.1,2.4-5.2
			C-218,245.1-221.1,242-225,242z M-223,256h-4v-1h4V256z M-227,258v-1h4v1H-227z M-221.7,252.7c-0.1,0.1-0.2,0.2-0.2,0.3h-6.2
			c-0.1-0.1-0.1-0.2-0.2-0.3c-1.3-1.2-1.9-2.9-1.6-4.7c0.4-1.9,2-3.6,3.9-3.9c0.3-0.1,0.7-0.1,1-0.1c2.8,0,5,2.2,5,5
			C-220,250.4-220.6,251.8-221.7,252.7z"/>
	</g>
	<g>
		<rect x="-225.5" y="250" class="st1" width="1" height="3"/>
		
			<rect x="-226.4" y="247.8" transform="matrix(-0.7071 0.7071 -0.7071 -0.7071 -209.3851 585.306)" class="st1" width="1" height="3"/>
		
			<rect x="-224.6" y="247.8" transform="matrix(0.7071 0.7071 -0.7071 0.7071 110.6474 231.4696)" class="st1" width="1" height="3"/>
	</g>
</g>
</svg>
