<?xml version="1.0" encoding="utf-8"?>
<!-- Generator: Adobe Illustrator 19.0.0, SVG Export Plug-In . SVG Version: 6.00 Build 0)  -->
<svg version="1.1" id="Capa_1" xmlns="http://www.w3.org/2000/svg" xmlns:xlink="http://www.w3.org/1999/xlink" x="0px" y="0px"
	 viewBox="0 0 500 500" style="enable-background:new 0 0 500 500;" xml:space="preserve">
<style type="text/css">
	.st0{fill:#FFFFFF;}
</style>
<g>
	<path class="st0" d="M446,486c-10.2-2.3-17.6-8.7-24.7-15.9c-29.5-29.7-59.2-59.1-88.8-88.7c-1.3-1.3-2.2-3-3.1-4.3
		c-95.9,67.1-221.9,33.2-278.8-48.3C-7.5,245.5,3.4,133.3,77.1,64.3c73-68.3,186.3-72,265-8.3c76.5,61.9,100,179.8,37.4,270.8
		c1.4,0.9,3.4,1.7,4.8,3.1c30.4,30.3,60.3,61.3,91.4,91c23.8,22.7,12.1,58.6-16.9,64.6c-0.3,0.1-0.6,0.3-0.8,0.5
		C454,486,450,486,446,486z M214.3,339.8c71,0.1,128-56.9,128.1-127.9c0-70.9-56.3-127-126.7-128.3
		c-68.5-1.2-129.8,56.9-129.3,128.5C86.7,282.3,143.6,339.7,214.3,339.8z"/>
</g>
</svg>
